<svg width="607" height="260" viewBox="0 0 607 260" fill="none" xmlns="http://www.w3.org/2000/svg">
<path d="M328.772 115.041C329.108 117.393 329.713 119.074 330.587 120.082C331.46 121.023 332.805 121.628 334.619 121.897L335.023 122.703L333.51 129.458C333.51 129.458 332.771 129.424 331.292 129.357C329.814 129.357 328.066 129.323 326.05 129.256C324.034 129.256 322.253 129.256 320.707 129.256C317.817 129.256 314.994 129.29 312.238 129.357C309.55 129.491 307.332 129.592 305.585 129.659C303.904 129.794 303.064 129.861 303.064 129.861L302.56 129.054L303.871 121.997C306.962 121.661 308.979 121.258 309.92 120.788C310.861 120.317 311.331 119.41 311.331 118.066C311.331 117.797 311.297 117.461 311.23 117.057C311.23 116.654 311.23 116.184 311.23 115.646L310.625 109.496C310.424 109.496 309.752 109.496 308.609 109.496C307.466 109.429 306.257 109.395 304.98 109.395C303.77 109.395 302.93 109.395 302.459 109.395C301.653 109.395 300.611 109.429 299.334 109.496C298.057 109.564 296.881 109.664 295.805 109.799C294.73 109.866 294.058 109.9 293.789 109.9L291.47 116.352C290.865 117.83 290.563 118.906 290.563 119.578C290.563 121.056 291.638 121.796 293.789 121.796H297.418L297.923 122.501L296.31 129.659C296.31 129.659 295.503 129.592 293.89 129.458C292.344 129.391 290.429 129.323 288.143 129.256C285.926 129.256 283.808 129.256 281.792 129.256C279.91 129.256 277.995 129.256 276.046 129.256C274.164 129.256 272.584 129.256 271.307 129.256C270.03 129.323 269.392 129.357 269.392 129.357L271.005 121.897C272.349 121.561 273.525 120.922 274.533 119.981C275.609 119.04 276.583 117.595 277.457 115.646L299.838 64.7343L320.404 63.1213L321.614 63.9278C321.614 63.9278 321.715 64.8351 321.917 66.6498C322.185 68.4645 322.521 70.884 322.925 73.9085C323.328 76.933 323.765 80.2935 324.235 83.99C324.773 87.6866 325.311 91.4504 325.848 95.2813C326.386 99.1123 326.89 102.742 327.361 106.169C327.898 109.597 328.369 112.554 328.772 115.041ZM297.822 99.7172H303.77C304.711 99.7172 305.719 99.6836 306.794 99.6164C307.87 99.5492 308.945 99.482 310.02 99.4148L308.004 78.9493H306.189L297.822 99.7172ZM367.005 130.264C361.561 130.264 356.856 129.222 352.891 127.139C348.992 124.988 345.968 121.897 343.817 117.864C341.734 113.764 340.692 108.891 340.692 103.246C340.692 96.928 341.532 91.2823 343.212 86.3088C344.892 81.3352 347.346 77.1346 350.572 73.7069C353.798 70.2792 357.696 67.658 362.266 65.8433C366.904 63.9614 372.113 63.0205 377.893 63.0205C379.976 63.0205 382.194 63.1549 384.547 63.4237C386.966 63.6926 389.251 63.995 391.402 64.3311C393.62 64.6671 395.401 64.9696 396.745 65.2384C398.157 65.44 398.862 65.5408 398.862 65.5408L399.366 67.1539C399.366 67.1539 399.064 68.0612 398.459 69.8759C397.921 71.6234 397.249 74.0093 396.443 77.0338C395.636 80.0582 394.863 83.4524 394.124 87.2161L381.824 88.0226C381.824 88.0226 381.925 87.5522 382.127 86.6112C382.329 85.6703 382.497 84.6621 382.631 83.5868C382.833 82.4442 382.933 81.5705 382.933 80.9656C382.933 76.5969 380.043 74.4126 374.263 74.4126C371.104 74.4126 368.416 75.4207 366.198 77.437C363.98 79.3861 362.3 82.377 361.157 86.4096C360.082 90.4422 359.544 95.5502 359.544 101.734C359.544 107.514 360.418 111.849 362.166 114.739C363.913 117.562 366.568 118.973 370.13 118.973C372.146 118.973 373.86 118.57 375.271 117.763C376.75 116.957 377.994 115.612 379.002 113.731C380.077 111.781 381.018 109.194 381.824 105.968L394.023 105.161C394.023 105.161 393.889 105.766 393.62 106.976C393.351 108.186 392.981 109.765 392.511 111.714C392.108 113.663 391.671 115.814 391.2 118.166C390.73 120.519 390.36 122.804 390.091 125.022L388.781 126.433C388.781 126.433 387.84 126.769 385.958 127.441C384.076 128.046 381.488 128.651 378.195 129.256C374.902 129.928 371.172 130.264 367.005 130.264ZM400.059 129.861L401.672 122.602C403.621 122.132 405.099 121.628 406.108 121.09C407.183 120.485 407.956 119.578 408.426 118.368C408.964 117.091 409.334 115.344 409.535 113.126L414.072 76.933C414.341 74.7822 414.274 73.3708 413.87 72.6987C413.467 72.0266 412.56 71.6906 411.148 71.6906C410.812 71.6906 410.375 71.7242 409.838 71.7914C409.3 71.7914 408.83 71.7914 408.426 71.7914L407.922 70.7832L409.434 64.1294C411.249 64.1294 413.333 64.163 415.685 64.2302C418.105 64.2302 420.054 64.2302 421.532 64.2302C422.944 64.2302 425.128 64.163 428.085 64.0286C431.043 63.8942 434.537 63.7598 438.57 63.6253L437.058 71.2873C435.512 71.5562 434.336 71.8922 433.529 72.2955C432.723 72.6987 432.118 73.3036 431.715 74.1101C431.311 74.9167 430.975 76.1264 430.707 77.7395L427.279 98.7091L425.464 112.924C425.397 113.932 425.262 114.974 425.061 116.049C424.926 117.125 424.893 118.032 424.96 118.771C425.027 119.914 425.262 120.687 425.666 121.09C426.069 121.493 426.775 121.695 427.783 121.695C428.388 121.695 428.993 121.661 429.598 121.594C430.202 121.527 430.673 121.46 431.009 121.392C431.076 121.527 431.143 121.695 431.211 121.897C431.345 122.031 431.446 122.165 431.513 122.3L429.698 129.559C428.489 129.491 426.976 129.424 425.162 129.357C423.414 129.29 421.7 129.222 420.02 129.155C418.34 129.155 416.996 129.155 415.987 129.155C414.643 129.155 413.03 129.189 411.148 129.256C409.334 129.323 407.452 129.391 405.503 129.458C403.554 129.592 401.739 129.727 400.059 129.861ZM424.859 102.439L426.976 91.1479C428.993 91.2151 430.975 91.2823 432.924 91.3495C434.941 91.3495 436.923 91.3832 438.873 91.4504C441.158 91.4504 443.107 91.4168 444.72 91.3495C446.4 91.2151 448.282 91.0471 450.365 90.8455L448.652 101.33L439.377 101.229C438.839 101.229 437.797 101.297 436.251 101.431C434.706 101.565 432.924 101.734 430.908 101.935C428.892 102.07 426.876 102.238 424.859 102.439ZM466.899 129.357C465.824 129.357 464.278 129.323 462.262 129.256C460.313 129.256 457.859 129.222 454.902 129.155H450.567C449.425 129.155 447.98 129.155 446.232 129.155C444.552 129.155 442.838 129.155 441.09 129.155C439.41 129.222 437.932 129.256 436.655 129.256L438.368 121.796C440.049 121.729 441.393 121.46 442.401 120.989C443.476 120.452 444.283 119.578 444.821 118.368C445.426 117.091 445.862 115.377 446.131 113.226L450.668 76.933C450.937 74.8495 450.87 73.4716 450.466 72.7995C450.063 72.0602 449.189 71.6906 447.845 71.6906C447.442 71.6906 446.938 71.7242 446.333 71.7914C445.795 71.7914 445.325 71.7914 444.921 71.7914L444.417 70.7832L446.03 64.1294C446.03 64.1294 446.467 64.1294 447.341 64.1294C448.282 64.1294 449.425 64.163 450.769 64.2302C452.18 64.2302 453.625 64.2302 455.104 64.2302C456.65 64.2302 458.027 64.2302 459.237 64.2302C460.447 64.2302 461.321 64.2302 461.858 64.2302C464.144 64.2302 466.563 64.163 469.117 64.0286C471.738 63.8942 473.956 63.7598 475.771 63.6253L474.259 71.0857C471.839 71.4889 470.192 72.0266 469.319 72.6987C468.512 73.3708 467.941 74.6814 467.605 76.6305C467.067 79.7222 466.496 83.0155 465.891 86.5104C465.353 89.9381 464.816 93.3322 464.278 96.6928C463.808 100.053 463.371 103.179 462.967 106.069C462.564 108.891 462.228 111.311 461.959 113.327C461.758 115.276 461.657 116.587 461.657 117.259C461.657 118.872 461.892 120.015 462.362 120.687C462.9 121.292 463.774 121.594 464.984 121.594C465.454 121.594 465.958 121.561 466.496 121.493C467.101 121.426 467.672 121.359 468.21 121.292C468.277 121.493 468.344 121.661 468.411 121.796C468.546 121.93 468.647 122.065 468.714 122.199L466.899 129.357ZM500.448 116.049C500.448 117.595 500.784 118.603 501.456 119.074C502.195 119.544 503.506 119.779 505.388 119.779C508.009 119.779 510.126 119.645 511.739 119.376C513.352 119.107 514.663 118.603 515.671 117.864C516.679 117.125 517.519 116.016 518.191 114.537C518.863 112.991 519.502 111.009 520.107 108.589L530.491 107.782L531.297 108.992C531.297 108.992 531.028 109.933 530.491 111.815C529.953 113.63 529.281 116.016 528.474 118.973C527.735 121.93 526.962 125.123 526.156 128.55L524.845 129.861C524.845 129.861 524.207 129.827 522.93 129.76C521.72 129.76 520.04 129.693 517.889 129.559C515.805 129.491 513.419 129.424 510.731 129.357C508.11 129.29 505.354 129.222 502.464 129.155C499.641 129.155 496.852 129.155 494.096 129.155C491.005 129.155 488.014 129.222 485.124 129.357C482.234 129.559 479.882 129.727 478.067 129.861C476.252 130.063 475.345 130.163 475.345 130.163L477.059 122.401C479.68 121.997 481.528 121.191 482.604 119.981C483.746 118.704 484.485 116.587 484.821 113.63L489.459 77.1346C489.728 74.9839 489.694 73.5389 489.358 72.7995C489.089 72.0602 488.35 71.6906 487.14 71.6906C486.67 71.6906 486.065 71.7242 485.326 71.7914C484.653 71.8586 484.317 71.8922 484.317 71.8922L483.612 70.7832L485.326 63.9278C485.326 63.9278 485.964 63.9614 487.241 64.0286C488.585 64.0286 490.299 64.0622 492.383 64.1294C494.466 64.1294 496.65 64.163 498.936 64.2302C501.288 64.2302 503.472 64.2302 505.489 64.2302C509.857 64.2302 513.957 64.1966 517.788 64.1294C521.619 64.0622 525.047 63.9278 528.071 63.7262C531.163 63.5245 533.65 63.2893 535.532 63.0205L536.439 64.3311C536.439 64.3311 536.136 65.272 535.532 67.1539C534.994 68.9686 534.355 71.3545 533.616 74.3118C532.944 77.2018 532.339 80.2263 531.801 83.3851L520.611 84.0908C520.611 84.0908 520.678 83.7884 520.812 83.1835C520.947 82.5786 521.081 81.8393 521.216 80.9656C521.35 80.0918 521.417 79.3189 521.417 78.6468C521.417 77.3698 521.115 76.4289 520.51 75.824C519.972 75.1519 518.931 74.715 517.385 74.5134C515.906 74.2446 513.789 74.1101 511.033 74.1101C509.824 74.1101 508.883 74.1773 508.211 74.3118C507.606 74.4462 507.169 74.7486 506.9 75.2191C506.698 75.6224 506.53 76.2945 506.396 77.2354L504.077 91.1479C505.018 91.1479 506.329 91.1815 508.009 91.2487C509.689 91.2487 511.235 91.2487 512.646 91.2487C513.386 91.2487 514.36 91.2151 515.57 91.1479C516.78 91.0807 517.99 91.0135 519.199 90.9463C520.476 90.8119 521.552 90.7111 522.426 90.6438C523.299 90.5766 523.736 90.543 523.736 90.543L524.543 91.652L521.921 101.431C521.921 101.431 521.216 101.397 519.804 101.33C518.46 101.263 516.847 101.229 514.965 101.229C513.083 101.162 511.336 101.129 509.723 101.129C508.311 101.129 506.934 101.229 505.589 101.431C504.312 101.565 503.237 101.7 502.363 101.834C501.96 104.657 501.523 107.413 501.053 110.101C500.649 112.79 500.448 114.772 500.448 116.049ZM567.901 76.6305C567.498 79.0501 567.027 81.8729 566.49 85.099C565.952 88.3251 565.381 91.6856 564.776 95.1805C564.238 98.6082 563.734 101.902 563.264 105.06C562.86 108.219 562.524 110.941 562.255 113.226C561.987 115.444 561.852 116.957 561.852 117.763C561.852 119.309 562.087 120.351 562.558 120.888C563.028 121.426 563.734 121.695 564.675 121.695C565.75 121.695 566.624 121.661 567.296 121.594C568.036 121.46 568.405 121.392 568.405 121.392L568.909 122.3L567.195 129.559C567.195 129.559 566.59 129.525 565.381 129.458C564.238 129.458 562.793 129.424 561.046 129.357C559.365 129.29 557.685 129.222 556.005 129.155C554.325 129.155 552.947 129.155 551.871 129.155C550.46 129.155 548.881 129.189 547.133 129.256C545.386 129.391 543.739 129.458 542.193 129.458C540.647 129.525 539.37 129.592 538.362 129.659C537.421 129.794 536.951 129.861 536.951 129.861L538.564 122.602C541.454 121.997 543.403 121.124 544.411 119.981C545.419 118.839 546.058 116.889 546.327 114.134L550.964 76.933C551.233 74.8495 551.166 73.4716 550.762 72.7995C550.359 72.0602 549.452 71.6906 548.04 71.6906C547.503 71.6906 546.864 71.7242 546.125 71.7914C545.453 71.7914 545.117 71.7914 545.117 71.7914C545.05 71.5898 544.949 71.4217 544.814 71.2873C544.747 71.1529 544.646 70.9849 544.512 70.7832L546.125 64.1294C547.402 64.1294 548.847 64.163 550.46 64.2302C552.14 64.2302 553.854 64.2302 555.602 64.2302C557.416 64.2302 559.13 64.2302 560.743 64.2302C561.819 64.2302 563.196 64.1966 564.877 64.1294C566.557 64.0622 568.237 63.995 569.917 63.9278C571.665 63.8606 573.11 63.7934 574.252 63.7262C575.462 63.659 576.067 63.6253 576.067 63.6253L574.454 71.2873C572.102 71.6234 570.522 72.1274 569.716 72.7995C568.909 73.4716 568.304 74.7486 567.901 76.6305Z" fill="#E6E6FA"/>
<path d="M585.793 130.163C583.373 130.163 581.525 129.525 580.248 128.248C579.038 126.904 578.433 125.156 578.433 123.006C578.433 119.914 579.374 117.393 581.256 115.444C583.138 113.495 585.591 112.521 588.615 112.521C590.968 112.521 592.749 113.193 593.959 114.537C595.236 115.814 595.874 117.562 595.874 119.779C595.874 122.804 594.933 125.291 593.051 127.24C591.237 129.189 588.817 130.163 585.793 130.163ZM587.204 61.9115L589.019 59.8952L605.048 57.5764L606.762 59.6936L594.664 104.456L586.297 105.766L584.785 104.052L587.204 61.9115Z" fill="#E1002D"/>
<path d="M299.311 177.064H278.75V191.195H302.784V199H269.054V148.939H302.68V156.812H278.75V169.431H299.311V177.064ZM335.138 188.788C335.138 188.215 335 187.711 334.725 187.275C334.473 186.84 334.014 186.427 333.35 186.038C332.662 185.671 331.757 185.327 330.634 185.006C329.51 184.685 328.089 184.364 326.37 184.043C324.192 183.608 322.198 183.069 320.387 182.427C318.6 181.763 317.064 180.96 315.78 180.021C314.497 179.104 313.488 178.038 312.755 176.823C312.044 175.608 311.689 174.21 311.689 172.628C311.689 171.093 312.055 169.626 312.789 168.227C313.522 166.829 314.577 165.603 315.952 164.548C317.327 163.494 319.001 162.657 320.972 162.038C322.943 161.42 325.167 161.11 327.642 161.11C330.232 161.11 332.559 161.42 334.622 162.038C336.685 162.634 338.438 163.46 339.882 164.514C341.304 165.591 342.392 166.863 343.149 168.33C343.905 169.797 344.283 171.391 344.283 173.11H334.725C334.725 172.491 334.622 171.918 334.416 171.391C334.209 170.84 333.9 170.348 333.487 169.912C332.914 169.339 332.135 168.881 331.149 168.537C330.187 168.193 329.018 168.021 327.642 168.021C326.473 168.021 325.453 168.136 324.582 168.365C323.711 168.594 323.001 168.915 322.45 169.328C321.946 169.694 321.556 170.13 321.281 170.634C321.029 171.115 320.903 171.631 320.903 172.181C320.903 172.731 321.018 173.247 321.247 173.729C321.476 174.187 321.889 174.6 322.485 174.966C323.058 175.356 323.849 175.711 324.857 176.032C325.866 176.33 327.149 176.594 328.708 176.823C330.954 177.19 333.04 177.66 334.966 178.233C336.891 178.806 338.553 179.539 339.951 180.433C341.349 181.35 342.438 182.462 343.218 183.768C344.02 185.052 344.421 186.588 344.421 188.376C344.421 190.026 344.02 191.55 343.218 192.948C342.438 194.324 341.327 195.516 339.882 196.524C338.415 197.533 336.65 198.324 334.588 198.897C332.525 199.447 330.221 199.722 327.677 199.722C324.88 199.722 322.405 199.355 320.25 198.622C318.118 197.888 316.33 196.925 314.886 195.733C313.442 194.564 312.342 193.235 311.586 191.745C310.852 190.232 310.485 188.719 310.485 187.207H319.597C319.665 188.215 319.941 189.086 320.422 189.82C320.903 190.53 321.522 191.103 322.279 191.539C323.035 191.997 323.895 192.33 324.857 192.536C325.843 192.742 326.851 192.845 327.883 192.845C329.121 192.845 330.198 192.742 331.115 192.536C332.055 192.307 332.823 192.009 333.418 191.642C333.992 191.275 334.416 190.851 334.691 190.37C334.989 189.888 335.138 189.361 335.138 188.788ZM353.567 213.303V161.798H362.403L362.747 165.442C363.251 164.823 363.801 164.273 364.397 163.792C364.993 163.288 365.635 162.852 366.323 162.485C367.148 162.05 368.053 161.718 369.039 161.488C370.047 161.236 371.125 161.11 372.271 161.11C374.632 161.11 376.718 161.569 378.528 162.485C380.339 163.379 381.864 164.652 383.101 166.302C384.339 167.975 385.267 169.981 385.886 172.319C386.528 174.634 386.849 177.201 386.849 180.021V180.743C386.849 183.447 386.528 185.957 385.886 188.272C385.267 190.587 384.351 192.582 383.136 194.255C381.898 195.951 380.374 197.281 378.563 198.243C376.752 199.206 374.678 199.687 372.34 199.687C371.102 199.687 369.956 199.55 368.901 199.275C367.87 199.023 366.907 198.644 366.013 198.14C365.486 197.819 364.982 197.464 364.5 197.074C364.019 196.685 363.561 196.249 363.125 195.768V213.303H353.567ZM377.291 180.021C377.291 178.462 377.142 177.006 376.844 175.654C376.569 174.279 376.133 173.087 375.537 172.078C374.918 171.093 374.128 170.313 373.165 169.74C372.225 169.167 371.079 168.881 369.727 168.881C368.947 168.881 368.237 168.961 367.595 169.121C366.953 169.259 366.369 169.465 365.841 169.74C365.245 170.061 364.718 170.462 364.26 170.944C363.824 171.425 363.446 171.986 363.125 172.628V188.169C363.423 188.765 363.778 189.304 364.191 189.785C364.626 190.267 365.119 190.679 365.669 191.023C366.197 191.344 366.804 191.596 367.492 191.779C368.179 191.94 368.947 192.02 369.795 192.02C371.148 192.02 372.294 191.722 373.234 191.126C374.196 190.53 374.976 189.716 375.572 188.685C376.168 187.653 376.603 186.462 376.878 185.109C377.153 183.734 377.291 182.278 377.291 180.743V180.021ZM394.413 180.055C394.413 177.35 394.803 174.852 395.582 172.56C396.362 170.244 397.508 168.239 399.021 166.543C400.51 164.846 402.333 163.517 404.487 162.554C406.665 161.591 409.152 161.11 411.948 161.11C414.745 161.11 417.232 161.591 419.409 162.554C421.587 163.517 423.432 164.846 424.945 166.543C426.435 168.239 427.57 170.244 428.349 172.56C429.128 174.852 429.518 177.35 429.518 180.055V180.777C429.518 183.505 429.128 186.026 428.349 188.341C427.57 190.633 426.435 192.628 424.945 194.324C423.455 196.02 421.621 197.349 419.444 198.312C417.266 199.252 414.791 199.722 412.017 199.722C409.221 199.722 406.722 199.252 404.522 198.312C402.344 197.349 400.51 196.02 399.021 194.324C397.508 192.628 396.362 190.633 395.582 188.341C394.803 186.026 394.413 183.505 394.413 180.777V180.055ZM403.972 180.777C403.972 182.336 404.121 183.803 404.419 185.178C404.717 186.53 405.186 187.711 405.828 188.719C406.47 189.751 407.295 190.565 408.304 191.161C409.335 191.756 410.573 192.054 412.017 192.054C413.415 192.054 414.619 191.756 415.627 191.161C416.636 190.565 417.461 189.751 418.103 188.719C418.722 187.711 419.18 186.53 419.478 185.178C419.776 183.803 419.925 182.336 419.925 180.777V180.055C419.925 178.542 419.776 177.109 419.478 175.757C419.18 174.405 418.722 173.213 418.103 172.181C417.461 171.15 416.636 170.336 415.627 169.74C414.619 169.144 413.392 168.846 411.948 168.846C410.527 168.846 409.312 169.144 408.304 169.74C407.295 170.336 406.47 171.15 405.828 172.181C405.186 173.213 404.717 174.405 404.419 175.757C404.121 177.109 403.972 178.542 403.972 180.055V180.777ZM464.726 161.11C466.17 161.11 467.499 161.213 468.714 161.42C469.952 161.603 470.949 161.809 471.705 162.038L470.296 171.562C469.035 171.264 467.74 171.047 466.41 170.909C465.104 170.749 463.855 170.668 462.663 170.668C461.425 170.668 460.302 170.783 459.293 171.012C458.308 171.219 457.425 171.54 456.646 171.975C455.706 172.479 454.904 173.121 454.239 173.9C453.574 174.68 453.024 175.597 452.589 176.651V199H443.03V161.798H451.935L452.314 167.058L452.382 167.883C453.895 165.775 455.706 164.124 457.815 162.932C459.924 161.718 462.227 161.11 464.726 161.11ZM497.836 152.686V161.798H511.727V168.846H497.836V184.834C497.836 186.187 497.985 187.321 498.283 188.238C498.604 189.132 499.051 189.843 499.624 190.37C500.197 190.92 500.885 191.31 501.687 191.539C502.512 191.768 503.429 191.883 504.438 191.883C505.171 191.883 505.916 191.848 506.672 191.779C507.452 191.711 508.197 191.619 508.907 191.504C509.595 191.413 510.237 191.31 510.833 191.195C511.452 191.08 511.979 190.966 512.414 190.851L513.343 197.418C512.678 197.808 511.899 198.152 511.005 198.45C510.111 198.725 509.16 198.954 508.151 199.137C507.142 199.321 506.088 199.458 504.988 199.55C503.91 199.664 502.845 199.722 501.79 199.722C499.75 199.722 497.893 199.458 496.22 198.931C494.57 198.381 493.16 197.533 491.991 196.387C490.799 195.264 489.882 193.831 489.241 192.089C488.599 190.324 488.278 188.215 488.278 185.762V168.846H479.785V161.798H488.278V152.686H497.836ZM540.643 199.687C537.777 199.687 535.176 199.218 532.838 198.278C530.5 197.338 528.494 196.054 526.821 194.427C525.147 192.822 523.852 190.931 522.935 188.754C522.042 186.553 521.595 184.204 521.595 181.705V180.33C521.595 177.488 522.042 174.898 522.935 172.56C523.829 170.199 525.079 168.17 526.683 166.474C528.288 164.778 530.19 163.46 532.391 162.52C534.591 161.58 536.986 161.11 539.577 161.11C542.258 161.11 544.642 161.557 546.728 162.451C548.837 163.322 550.625 164.56 552.092 166.164C553.536 167.769 554.636 169.706 555.393 171.975C556.149 174.221 556.527 176.708 556.527 179.436V183.493H531.29V183.596C531.611 185.086 532.024 186.29 532.528 187.207C533.032 188.1 533.709 188.914 534.557 189.648C535.428 190.404 536.425 190.989 537.548 191.401C538.671 191.814 539.898 192.02 541.227 192.02C543.107 192.02 544.929 191.665 546.694 190.954C548.459 190.244 549.891 189.178 550.992 187.757L555.771 192.914C554.556 194.633 552.631 196.192 549.995 197.59C547.359 198.988 544.241 199.687 540.643 199.687ZM539.508 168.846C538.431 168.846 537.445 169.041 536.551 169.431C535.657 169.797 534.878 170.336 534.213 171.047C533.525 171.757 532.952 172.605 532.494 173.591C532.035 174.577 531.692 175.677 531.462 176.892H547.141V176.135C547.141 175.127 546.957 174.176 546.591 173.282C546.224 172.388 545.72 171.608 545.078 170.944C544.436 170.302 543.645 169.797 542.705 169.431C541.789 169.041 540.723 168.846 539.508 168.846ZM588.881 188.788C588.881 188.215 588.744 187.711 588.469 187.275C588.217 186.84 587.758 186.427 587.093 186.038C586.406 185.671 585.5 185.327 584.377 185.006C583.254 184.685 581.833 184.364 580.114 184.043C577.936 183.608 575.942 183.069 574.131 182.427C572.343 181.763 570.808 180.96 569.524 180.021C568.24 179.104 567.232 178.038 566.498 176.823C565.788 175.608 565.432 174.21 565.432 172.628C565.432 171.093 565.799 169.626 566.533 168.227C567.266 166.829 568.321 165.603 569.696 164.548C571.071 163.494 572.744 162.657 574.716 162.038C576.687 161.42 578.91 161.11 581.386 161.11C583.976 161.11 586.303 161.42 588.366 162.038C590.429 162.634 592.182 163.46 593.626 164.514C595.047 165.591 596.136 166.863 596.892 168.33C597.649 169.797 598.027 171.391 598.027 173.11H588.469C588.469 172.491 588.366 171.918 588.159 171.391C587.953 170.84 587.644 170.348 587.231 169.912C586.658 169.339 585.879 168.881 584.893 168.537C583.93 168.193 582.761 168.021 581.386 168.021C580.217 168.021 579.197 168.136 578.326 168.365C577.455 168.594 576.744 168.915 576.194 169.328C575.69 169.694 575.3 170.13 575.025 170.634C574.773 171.115 574.647 171.631 574.647 172.181C574.647 172.731 574.762 173.247 574.991 173.729C575.22 174.187 575.633 174.6 576.229 174.966C576.802 175.356 577.592 175.711 578.601 176.032C579.609 176.33 580.893 176.594 582.452 176.823C584.698 177.19 586.784 177.66 588.709 178.233C590.635 178.806 592.297 179.539 593.695 180.433C595.093 181.35 596.182 182.462 596.961 183.768C597.763 185.052 598.165 186.588 598.165 188.376C598.165 190.026 597.763 191.55 596.961 192.948C596.182 194.324 595.07 195.516 593.626 196.524C592.159 197.533 590.394 198.324 588.331 198.897C586.268 199.447 583.965 199.722 581.42 199.722C578.624 199.722 576.148 199.355 573.994 198.622C571.862 197.888 570.074 196.925 568.63 195.733C567.186 194.564 566.086 193.235 565.329 191.745C564.596 190.232 564.229 188.719 564.229 187.207H573.34C573.409 188.215 573.684 189.086 574.166 189.82C574.647 190.53 575.266 191.103 576.022 191.539C576.779 191.997 577.638 192.33 578.601 192.536C579.587 192.742 580.595 192.845 581.627 192.845C582.864 192.845 583.942 192.742 584.859 192.536C585.798 192.307 586.566 192.009 587.162 191.642C587.735 191.275 588.159 190.851 588.434 190.37C588.732 189.888 588.881 189.361 588.881 188.788Z" fill="#FF7F0E"/>
<path d="M122.617 149.417C122.617 150.901 122.939 151.869 123.585 152.321C124.294 152.773 125.553 152.999 127.359 152.999C129.876 152.999 131.909 152.869 133.457 152.611C135.006 152.353 136.264 151.869 137.232 151.16C138.2 150.45 139.007 149.385 139.652 147.965C140.297 146.481 140.91 144.578 141.491 142.255L151.46 141.481L152.235 142.642C152.235 142.642 151.976 143.545 151.46 145.352C150.944 147.094 150.299 149.385 149.524 152.224C148.815 155.063 148.073 158.128 147.298 161.419L146.04 162.678C146.04 162.678 145.427 162.645 144.201 162.581C143.039 162.581 141.426 162.516 139.361 162.387C137.361 162.323 135.07 162.258 132.489 162.194C129.973 162.129 127.327 162.065 124.553 162C121.842 162 119.165 162 116.519 162C113.551 162 110.679 162.065 107.905 162.194C105.13 162.387 102.872 162.548 101.129 162.678C99.3872 162.871 98.516 162.968 98.516 162.968L100.161 155.515C102.678 155.128 104.453 154.354 105.485 153.192C106.582 151.966 107.292 149.934 107.614 147.094L112.067 112.056C112.325 109.992 112.292 108.604 111.97 107.894C111.712 107.185 111.002 106.83 109.84 106.83C109.389 106.83 108.808 106.862 108.098 106.926C107.453 106.991 107.13 107.023 107.13 107.023L106.453 105.959L108.098 99.3769C108.098 99.3769 108.711 99.4091 109.937 99.4737C111.228 99.4737 112.873 99.5059 114.874 99.5704C116.874 99.5704 118.971 99.6027 121.165 99.6672C123.423 99.6672 125.52 99.6672 127.456 99.6672C131.65 99.6672 135.587 99.635 139.265 99.5704C142.943 99.5059 146.234 99.3769 149.137 99.1833C152.105 98.9897 154.493 98.7639 156.3 98.5058L157.171 99.764C157.171 99.764 156.88 100.667 156.3 102.474C155.783 104.216 155.17 106.507 154.461 109.346C153.815 112.121 153.235 115.025 152.718 118.057L141.975 118.735C141.975 118.735 142.039 118.444 142.168 117.864C142.297 117.283 142.426 116.573 142.556 115.734C142.685 114.896 142.749 114.153 142.749 113.508C142.749 112.282 142.459 111.379 141.878 110.798C141.362 110.153 140.362 109.733 138.877 109.54C137.458 109.282 135.425 109.153 132.78 109.153C131.618 109.153 130.715 109.217 130.07 109.346C129.489 109.475 129.069 109.766 128.811 110.217C128.618 110.605 128.456 111.25 128.327 112.153L126.101 125.51C127.005 125.51 128.263 125.542 129.876 125.607C131.489 125.607 132.973 125.607 134.328 125.607C135.038 125.607 135.974 125.575 137.135 125.51C138.297 125.446 139.458 125.381 140.62 125.317C141.846 125.188 142.878 125.091 143.717 125.026C144.556 124.962 144.975 124.929 144.975 124.929L145.75 125.994L143.233 135.383C143.233 135.383 142.556 135.35 141.2 135.286C139.91 135.221 138.361 135.189 136.555 135.189C134.748 135.125 133.07 135.092 131.521 135.092C130.166 135.092 128.844 135.189 127.553 135.383C126.327 135.512 125.295 135.641 124.456 135.77C124.069 138.48 123.649 141.126 123.198 143.707C122.81 146.288 122.617 148.191 122.617 149.417Z" fill="#FF7F0E"/>
<path d="M103 244.724C102.163 244.527 101.33 244.321 100.5 244.105C50.7729 231.186 14 185.247 14 130.556C14 65.842 65.4873 13.3809 129 13.3809C192.513 13.3809 244 65.842 244 130.556C244 186.159 205.99 232.717 155 244.724" stroke="#C5CAE9" stroke-width="26.62"/>
<circle cx="129" cy="130.701" r="66.2737" stroke="#E6E6FA" stroke-width="20.62"/>
<path d="M95 230L108 232V259.5L95 256.5V230Z" fill="#C5CAE9"/>
<path d="M163 230L150 232V259.5L163 256.5V230Z" fill="#C5CAE9"/>
<rect x="111" y="15.4932" width="36.45" height="47.8562" fill="#E6E6FA"/>
<path d="M128.64 87.04C128.64 87.04 163.28 56.1082 163.28 32.64C163.28 23.9833 159.63 15.6812 153.134 9.56003C146.638 3.43885 137.827 0 128.64 0C119.453 0 110.642 3.43885 104.146 9.56003C97.6496 15.6812 94 23.9833 94 32.64C94 56.1082 128.64 87.04 128.64 87.04ZM128.64 48.96C124.046 48.96 119.641 47.2406 116.393 44.18C113.145 41.1194 111.32 36.9683 111.32 32.64C111.32 28.3117 113.145 24.1606 116.393 21.1C119.641 18.0394 124.046 16.32 128.64 16.32C133.234 16.32 137.639 18.0394 140.887 21.1C144.135 24.1606 145.96 28.3117 145.96 32.64C145.96 36.9683 144.135 41.1194 140.887 44.18C137.639 47.2406 133.234 48.96 128.64 48.96Z" fill="#E1002D"/>
</svg>
